<svg width="120" height="29" viewBox="0 0 120 29" fill="none" xmlns="http://www.w3.org/2000/svg">
<path d="M38.4522 4.96175C47.7388 -1.08891 53.5151 -1.17687 60.0726 3.97542C66.1025 -4.09561 80.8486 5.47881 81.5478 6.40951C82.2469 7.34021 93.5913 17.588 104.184 17.1266C114.776 16.6651 112.344 15.49 120 11.7565C116.066 18.7849 112.088 22.1307 100.701 26.6611C92.416 28.4862 88.209 28.2505 81.1125 26.6611C71.7878 24.2573 67.2271 21.7849 60.0726 15.7018C60.1269 16.1025 46.1921 25.7146 38.4522 26.6611C30.7123 27.6076 26.4868 28.9934 19.4438 27.2091C13.8849 25.8008 7.11004 20.7431 7.11004 20.7431C7.11004 20.7431 1.24428 14.218 0 10.9894C9.11676 16.8699 13.5059 18.5136 19.4438 17.1266C25.3817 15.7395 29.1657 11.0124 38.4522 4.96175Z" fill="#E2C244"/>
</svg>
