<svg width="120" height="29" viewBox="0 0 120 29" fill="none" xmlns="http://www.w3.org/2000/svg">
<path d="M38.4522 5.51839C47.7388 -0.532267 53.5151 -0.620231 60.0726 4.53206C66.1025 -3.53897 80.8486 6.03545 81.5478 6.96615C82.2469 7.89685 93.5913 18.1446 104.184 17.6832C114.776 17.2218 112.344 16.0466 120 12.3131C116.066 19.3415 112.088 22.6873 100.701 27.2178C92.416 29.0429 88.209 28.8072 81.1125 27.2178C71.7878 24.8139 67.2271 22.3416 60.0726 16.2585C60.1269 16.6591 46.1921 26.2713 38.4522 27.2178C30.7123 28.1643 26.4868 29.55 19.4438 27.7657C13.8849 26.3574 7.11004 21.2998 7.11004 21.2998C7.11004 21.2998 1.24428 14.7746 0 11.546C9.11676 17.4265 13.5059 19.0702 19.4438 17.6832C25.3817 16.2962 29.1657 11.5691 38.4522 5.51839Z" fill="#F5EBC3"/>
</svg>
