<svg width="120" height="28" viewBox="0 0 120 28" fill="none" xmlns="http://www.w3.org/2000/svg">
<path d="M38.4522 4.79665C47.7388 -1.25401 53.5151 -1.34197 60.0726 3.81032C66.1025 -4.26071 80.8486 5.31371 81.5478 6.24441C82.2469 7.17511 93.5913 17.4229 104.184 16.9615C114.776 16.5 112.344 15.3249 120 11.5914C116.066 18.6198 112.088 21.9656 100.701 26.496C92.416 28.3211 88.209 28.0854 81.1125 26.496C71.7878 24.0922 67.2271 21.6198 60.0726 15.5367C60.1269 15.9374 46.1921 25.5495 38.4522 26.496C30.7123 27.4425 26.4868 28.8283 19.4438 27.044C13.8849 25.6357 7.11004 20.578 7.11004 20.578C7.11004 20.578 1.24428 14.0529 0 10.8243C9.11676 16.7048 13.5059 18.3485 19.4438 16.9615C25.3817 15.5744 29.1657 10.8473 38.4522 4.79665Z" fill="#171407"/>
</svg>
