<svg width="140" height="141" viewBox="0 0 140 141" fill="none" xmlns="http://www.w3.org/2000/svg">
<rect x="1" y="1.81458" width="138" height="138" rx="7" stroke="#F5EBC3" stroke-width="2"/>
<path fill-rule="evenodd" clip-rule="evenodd" d="M37.5 44.5824L38.4286 75.6896C47.6409 85.0708 53.1991 89.792 63.9643 97.0467C67.5829 96.0977 71.1582 95.5846 82.0714 94.7253C89.9708 90.4789 94.0576 87.1794 100.643 79.4039C101.521 75.2607 101.892 65.4986 102.5 44.5824C98.4226 55.9115 96.0491 61.8961 91.3571 70.5824C86.9588 66.0278 85.5198 63.5386 83.1478 59.4357C82.8115 58.8539 82.4564 58.2396 82.0714 57.5824C73.0568 60.6636 68.5386 60.4783 59.7857 57.5824C54.8515 64.3203 52.4284 66.3635 50.3898 68.0824C49.9515 68.452 49.531 68.8065 49.1071 69.1896C44.271 61.3197 41.8268 55.383 37.5 44.5824ZM57.9286 78.6741C60.8455 82.0746 63.0125 83.6617 69.0714 85.1741L70 79.1384H74.1786L75.5714 84.7098C80.1222 84.5574 82.341 83.9721 85.3214 81.4598C84.0089 78.191 83.3743 76.912 80.6786 72.1741C78.1115 70.8743 75.5917 70.6853 71.8571 72.1741C67.8399 70.3483 65.2116 69.9606 63.0357 71.7099C60.2599 74.4609 59.5365 75.6325 57.9286 78.6741Z" fill="#F5EBC3"/>
</svg>
