<svg width="100" height="101" viewBox="0 0 100 101" fill="none" xmlns="http://www.w3.org/2000/svg">
<path d="M37.5 52.8145C37.5 49.4992 38.817 46.3198 41.1612 43.9756C43.5054 41.6314 46.6848 40.3145 50 40.3145C53.3152 40.3145 56.4946 41.6314 58.8388 43.9756C61.183 46.3198 62.5 49.4992 62.5 52.8145V65.3145C62.5 70.0295 62.5 72.3845 61.035 73.8495C59.57 75.3145 57.215 75.3145 52.5 75.3145H47.5C42.785 75.3145 40.43 75.3145 38.965 73.8495C37.5 72.3845 37.5 70.0295 37.5 65.3145V52.8145Z" stroke="#E2C244" stroke-width="1.5" stroke-linecap="round" stroke-linejoin="round"/>
<path d="M45 40.3145V37.8145C45 35.457 45 34.2795 45.7325 33.547C46.465 32.8145 47.6425 32.8145 50 32.8145M50 32.8145C52.3575 32.8145 53.535 32.8145 54.2675 33.547C55 34.2795 55 35.457 55 37.8145V40.3145M50 32.8145V25.3145M50 25.3145H45M50 25.3145H56.8625C58.7554 25.3149 60.5781 26.0312 61.965 27.3195L62.5 27.8145M37.5 52.8145H62.5" stroke="#E2C244" stroke-width="1.5" stroke-linecap="round" stroke-linejoin="round"/>
<circle cx="50" cy="50.3145" r="49" stroke="#F5EBC3" stroke-width="2"/>
</svg>
