<svg width="40" height="41" viewBox="0 0 40 41" fill="none" xmlns="http://www.w3.org/2000/svg">
<rect x="1" y="1.32623" width="38" height="38" rx="19" stroke="#F5EBC3" stroke-width="2"/>
<path d="M15.8 10.8262H24.2C27.1239 10.8262 29.5 13.2024 29.5 16.1262V24.5262C29.5 25.9319 28.9416 27.28 27.9477 28.2739C26.9537 29.2678 25.6056 29.8262 24.2 29.8262H15.8C12.8761 29.8262 10.5 27.4501 10.5 24.5262V16.1262C10.5 14.7206 11.0584 13.3725 12.0523 12.3786C13.0463 11.3846 14.3944 10.8262 15.8 10.8262ZM15.6 11.8262C14.5126 11.8262 13.4698 12.2582 12.7009 13.0271C11.932 13.796 11.5 14.8388 11.5 15.9262V24.7262C11.5 26.9924 13.3339 28.8262 15.6 28.8262H24.4C25.4874 28.8262 26.5302 28.3943 27.2991 27.6254C28.068 26.8565 28.5 25.8136 28.5 24.7262V15.9262C28.5 13.6601 26.6661 11.8262 24.4 11.8262H15.6ZM25.25 14.3262C25.4489 14.3262 25.6397 14.4053 25.7803 14.5459C25.921 14.6866 26 14.8773 26 15.0762C26 15.2751 25.921 15.4659 25.7803 15.6066C25.6397 15.7472 25.4489 15.8262 25.25 15.8262C25.0511 15.8262 24.8603 15.7472 24.7197 15.6066C24.579 15.4659 24.5 15.2751 24.5 15.0762C24.5 14.8773 24.579 14.6866 24.7197 14.5459C24.8603 14.4053 25.0511 14.3262 25.25 14.3262ZM20 15.8262C21.1935 15.8262 22.3381 16.3003 23.182 17.1443C24.0259 17.9882 24.5 19.1328 24.5 20.3262C24.5 21.5197 24.0259 22.6643 23.182 23.5082C22.3381 24.3521 21.1935 24.8262 20 24.8262C18.8065 24.8262 17.6619 24.3521 16.818 23.5082C15.9741 22.6643 15.5 21.5197 15.5 20.3262C15.5 19.1328 15.9741 17.9882 16.818 17.1443C17.6619 16.3003 18.8065 15.8262 20 15.8262ZM20 16.8262C19.0717 16.8262 18.1815 17.195 17.5251 17.8514C16.8687 18.5077 16.5 19.398 16.5 20.3262C16.5 21.2545 16.8687 22.1447 17.5251 22.8011C18.1815 23.4575 19.0717 23.8262 20 23.8262C20.9283 23.8262 21.8185 23.4575 22.4749 22.8011C23.1313 22.1447 23.5 21.2545 23.5 20.3262C23.5 19.398 23.1313 18.5077 22.4749 17.8514C21.8185 17.195 20.9283 16.8262 20 16.8262Z" fill="#E2C244" stroke="#E2C244"/>
</svg>
