<svg width="100" height="101" viewBox="0 0 100 101" fill="none" xmlns="http://www.w3.org/2000/svg">
<path d="M74.1667 43.231C74.175 46.9496 72.7424 50.5269 70.1696 53.2118C64.2705 59.3284 58.5478 65.706 52.4312 71.5978C51.0271 72.927 48.8014 72.8786 47.4601 71.489L29.8305 53.2142C24.5018 47.6897 24.5018 38.7722 29.8305 33.2501C31.09 31.9282 32.6047 30.8758 34.283 30.1567C35.9612 29.4376 37.7681 29.0669 39.5939 29.0669C41.4197 29.0669 43.2265 29.4376 44.9048 30.1567C46.583 30.8758 48.0978 31.9282 49.3572 33.2501L50 33.9123L50.6405 33.2501C51.9014 31.93 53.4164 30.8786 55.0943 30.1593C56.7722 29.44 58.5782 29.0676 60.4038 29.0645C64.0771 29.0645 67.5885 30.5725 70.1671 33.2501C72.7409 35.9347 74.1744 39.512 74.1667 43.231Z" stroke="#E2C244" stroke-width="1.5" stroke-linejoin="round"/>
<circle cx="50" cy="50.8145" r="49" stroke="#F5EBC3" stroke-width="2"/>
</svg>
