<svg width="140" height="141" viewBox="0 0 140 141" fill="none" xmlns="http://www.w3.org/2000/svg">
<rect x="1" y="1.81458" width="138" height="138" rx="7" stroke="#F5EBC3" stroke-width="2"/>
<path d="M47.3256 77.3553C45.7219 84.0355 44.722 87.6342 42.5291 93.489C41.1533 87.2354 40.5533 83.1531 39.9128 74.303C36.0692 70.056 34.7804 66.8896 32.5 61.2216C35.7293 63.9752 37.5385 65.2594 40.7849 66.4541C40.7066 62.6948 40.2687 60.1556 39.0407 55.1169C38.5589 49.7089 38.7461 47.6282 39.9128 45.5239C43.8245 50.0419 46.4689 51.762 52.9942 53.3727L50.814 45.5239C52.6554 48.012 53.9817 48.667 56.9186 48.5762L58.2267 45.5239C59.5973 46.7779 60.9646 47.4371 63.8953 48.5762L64.7674 44.2158C68.6321 46.4371 70.8193 47.345 74.7965 47.2681L75.6686 44.2158C89.1394 51.8999 97.9228 56.6035 107.5 68.1983C107.252 84.1378 107.068 94.8876 104.448 97.4134C103.018 90.1396 102.059 86.622 100.087 81.2797C76.6895 83.6596 64.9605 83.0406 47.3256 77.3553Z" fill="#F5EBC3"/>
</svg>
