<svg width="140" height="141" viewBox="0 0 140 141" fill="none" xmlns="http://www.w3.org/2000/svg">
<rect x="1" y="1.81458" width="138" height="138" rx="7" stroke="#F5EBC3" stroke-width="2"/>
<path d="M51.8605 53.896C50.5775 59.2401 49.7776 62.1191 48.0233 66.8029C46.9226 61.8001 46.4426 58.5342 45.9302 51.4541C42.8554 48.0565 41.8243 45.5234 40 40.989C42.5835 43.1919 44.0308 44.2193 46.6279 45.175C46.5653 42.1675 46.2149 40.1362 45.2326 36.1053C44.8471 31.7788 44.9969 30.1143 45.9302 28.4309C49.0596 32.0452 51.1751 33.4213 56.3953 34.7099L54.6512 28.4309C56.1243 30.4213 57.1854 30.9453 59.5349 30.8727L60.5814 28.4309C61.6778 29.4341 62.7717 29.9614 65.1163 30.8727L65.814 27.3843C68.9057 29.1614 70.6554 29.8877 73.8372 29.8262L74.5349 27.3843C85.3115 33.5316 92.3382 37.2946 100 46.5704C99.8018 59.322 99.6548 67.9218 97.5581 69.9425C96.4142 64.1234 95.6471 61.3093 94.0698 57.0355C75.3516 58.9394 65.9684 58.4442 51.8605 53.896Z" fill="#F5EBC3"/>
<path fill-rule="evenodd" clip-rule="evenodd" d="M48.3721 74.8262L49.0697 98.1983C55.9914 105.247 60.1674 108.794 68.2558 114.245C70.9746 113.532 73.6609 113.146 81.8604 112.501C87.7955 109.31 90.8661 106.831 95.8139 100.989C96.4734 97.876 96.7525 90.5414 97.2093 74.8262C94.1458 83.3382 92.3625 87.8347 88.8372 94.3611C85.5325 90.939 84.4513 89.0687 82.6692 85.9861C82.4165 85.5489 82.1497 85.0874 81.8604 84.5936C75.0874 86.9087 71.6926 86.7695 65.1163 84.5936C61.4089 89.6561 59.5884 91.1912 58.0567 92.4827C57.7274 92.7604 57.4115 93.0268 57.093 93.3146C53.4594 87.4016 51.623 82.9411 48.3721 74.8262ZM63.7209 100.441C65.9125 102.996 67.5407 104.188 72.093 105.324L72.7907 100.79H75.9302L76.9767 104.976C80.3959 104.861 82.063 104.421 84.3023 102.534C83.3161 100.078 82.8393 99.1168 80.8139 95.557C78.8852 94.5804 76.9919 94.4384 74.186 95.557C71.1677 94.1852 69.193 93.8939 67.5581 95.2082C65.4725 97.2752 64.929 98.1555 63.7209 100.441Z" fill="#F5EBC3"/>
</svg>
