<svg width="140" height="141" viewBox="0 0 140 141" fill="none" xmlns="http://www.w3.org/2000/svg">
<rect x="1" y="1.81458" width="138" height="138" rx="7" stroke="#F5EBC3" stroke-width="2"/>
<path d="M100.123 83.6292C99.966 83.3925 99.7528 83.1984 99.5026 83.064C99.2523 82.9297 98.9726 82.8594 98.6886 82.8594C98.4045 82.8594 98.1249 82.9297 97.8746 83.064C97.6243 83.1984 97.4112 83.3925 97.2542 83.6292C97.0534 83.9161 92.3772 91.0079 92.3772 96.0599C92.3772 97.7338 93.0421 99.3391 94.2257 100.523C95.4094 101.706 97.0147 102.371 98.6886 102.371C100.362 102.371 101.968 101.706 103.151 100.523C104.335 99.3391 105 97.7338 105 96.0599C105 91.0079 100.321 83.9276 100.123 83.6292ZM98.6886 98.9287C97.9277 98.9287 97.198 98.6264 96.66 98.0884C96.122 97.5504 95.8198 96.8207 95.8198 96.0599C95.8198 93.716 97.3603 90.3452 98.6886 87.9296C100.017 90.3423 101.557 93.7103 101.557 96.0599C101.557 96.8207 101.255 97.5504 100.717 98.0884C100.179 98.6264 99.4494 98.9287 98.6886 98.9287ZM99.2337 75.7428C99.5122 75.65 99.7623 75.4875 99.9603 75.2707C100.158 75.0539 100.298 74.7901 100.365 74.5043C100.432 74.2185 100.425 73.9203 100.345 73.638C100.264 73.3556 100.113 73.0986 99.905 72.8912L66.7758 39.762C66.6159 39.602 66.4261 39.475 66.2171 39.3884C66.0081 39.3018 65.7842 39.2572 65.558 39.2572C65.3318 39.2572 65.1078 39.3018 64.8988 39.3884C64.6898 39.475 64.5 39.602 64.3401 39.762L52.2911 51.8111L44.8321 44.3522C44.5086 44.0335 44.0723 43.8556 43.6182 43.8571C43.1641 43.8587 42.729 44.0397 42.4078 44.3606C42.0865 44.6815 41.905 45.1163 41.9029 45.5704C41.9008 46.0245 42.0782 46.461 42.3965 46.7849L49.8554 54.2439L36.8482 67.254C35.6648 68.4376 35 70.0427 35 71.7164C35 73.3901 35.6648 74.9953 36.8482 76.1789L61.193 100.524C62.3766 101.707 63.9818 102.372 65.6555 102.372C67.3292 102.372 68.9344 101.707 70.118 100.524L92.7329 77.9088L99.2337 75.7428ZM90.587 75.1863L67.6852 98.0881C67.1472 98.6259 66.4176 98.9281 65.6569 98.9281C64.8962 98.9281 64.1667 98.6259 63.6287 98.0881L39.2838 73.7433C38.746 73.2053 38.4439 72.4757 38.4439 71.715C38.4439 70.9543 38.746 70.2247 39.2838 69.6868L52.2853 56.6852L61.3566 65.7536C60.4777 67.1819 60.1059 68.8648 60.3011 70.5304C60.4963 72.1961 61.2471 73.7474 62.4324 74.9338C63.8311 76.3318 65.7277 77.1171 67.7053 77.1171C69.6828 77.1171 71.5795 76.3318 72.9782 74.9338C74.2629 73.6402 75.0293 71.9207 75.1326 70.1004C75.2359 68.2801 74.6689 66.485 73.5388 65.0543C72.4086 63.6236 70.7936 62.6564 68.9988 62.3354C67.2041 62.0144 65.3539 62.3619 63.7979 63.3122L54.721 54.2496L65.5594 43.414L95.5013 73.356L91.2583 74.7703C91.0058 74.856 90.7762 74.9983 90.587 75.1863ZM64.8651 66.8294C65.4272 66.2686 66.1428 65.8869 66.9217 65.7326C67.7006 65.5783 68.5077 65.6584 69.2411 65.9626C69.9745 66.2668 70.6012 66.7816 71.0422 67.4419C71.4831 68.1022 71.7185 68.8784 71.7185 69.6724C71.7185 70.4664 71.4831 71.2426 71.0422 71.9029C70.6012 72.5632 69.9745 73.078 69.2411 73.3822C68.5077 73.6865 67.7006 73.7665 66.9217 73.6122C66.1428 73.4579 65.4272 73.0763 64.8651 72.5154C64.4882 72.1441 64.1888 71.7015 63.9845 71.2135C63.7801 70.7254 63.6749 70.2015 63.6749 69.6724C63.6749 69.1433 63.7801 68.6194 63.9845 68.1314C64.1888 67.6433 64.4882 67.2007 64.8651 66.8294Z" fill="#F5EBC3"/>
</svg>
