<svg width="140" height="141" viewBox="0 0 140 141" fill="none" xmlns="http://www.w3.org/2000/svg">
<rect x="1" y="1.81458" width="138" height="138" rx="7" stroke="#F5EBC3" stroke-width="2"/>
<path d="M70.4351 98.737C86.7632 98.737 100 82.312 100 82.312C100 82.312 86.7632 65.8871 70.4351 65.8871C54.1071 65.8871 40.8702 82.312 40.8702 82.312C40.8702 82.312 54.1071 98.737 70.4351 98.737Z" stroke="#F5EBC3" stroke-width="3" stroke-linejoin="round"/>
<path d="M70.4351 88.882C72.1776 88.882 73.8487 88.1898 75.0808 86.9577C76.3129 85.7256 77.0051 84.0545 77.0051 82.3121C77.0051 80.5696 76.3129 78.8985 75.0808 77.6664C73.8487 76.4343 72.1776 75.7421 70.4351 75.7421C68.6926 75.7421 67.0216 76.4343 65.7894 77.6664C64.5573 78.8985 63.8651 80.5696 63.8651 82.3121C63.8651 84.0545 64.5573 85.7256 65.7894 86.9577C67.0216 88.1898 68.6926 88.882 70.4351 88.882ZM77.0051 42.8922C65.5076 42.8922 47.4402 48.6409 42.5127 52.7472C37.5852 56.8534 40.8702 64.2446 44.1552 62.6021C47.4402 60.9596 69.1211 53.0757 77.0051 51.1047C84.8891 49.1337 96.1681 52.4729 100 54.3897C96.1681 51.1047 88.5025 42.8922 77.0051 42.8922Z" stroke="#F5EBC3" stroke-width="3" stroke-linejoin="round"/>
</svg>
