<svg width="40" height="41" viewBox="0 0 40 41" fill="none" xmlns="http://www.w3.org/2000/svg">
<rect y="0.814575" width="40" height="40" rx="2" fill="#E2C244"/>
<path d="M15.8 10.8146H24.2C27.4 10.8146 30 13.4146 30 16.6146V25.0146C30 26.5528 29.3889 28.0281 28.3012 29.1158C27.2135 30.2035 25.7383 30.8146 24.2 30.8146H15.8C12.6 30.8146 10 28.2146 10 25.0146V16.6146C10 15.0763 10.6111 13.6011 11.6988 12.5134C12.7865 11.4256 14.2617 10.8146 15.8 10.8146ZM15.6 12.8146C14.6452 12.8146 13.7295 13.1939 13.0544 13.869C12.3793 14.5441 12 15.4598 12 16.4146V25.2146C12 27.2046 13.61 28.8146 15.6 28.8146H24.4C25.3548 28.8146 26.2705 28.4353 26.9456 27.7602C27.6207 27.085 28 26.1694 28 25.2146V16.4146C28 14.4246 26.39 12.8146 24.4 12.8146H15.6ZM25.25 14.3146C25.5815 14.3146 25.8995 14.4463 26.1339 14.6807C26.3683 14.9151 26.5 15.2331 26.5 15.5646C26.5 15.8961 26.3683 16.214 26.1339 16.4485C25.8995 16.6829 25.5815 16.8146 25.25 16.8146C24.9185 16.8146 24.6005 16.6829 24.3661 16.4485C24.1317 16.214 24 15.8961 24 15.5646C24 15.2331 24.1317 14.9151 24.3661 14.6807C24.6005 14.4463 24.9185 14.3146 25.25 14.3146ZM20 15.8146C21.3261 15.8146 22.5979 16.3414 23.5355 17.279C24.4732 18.2167 25 19.4885 25 20.8146C25 22.1407 24.4732 23.4124 23.5355 24.3501C22.5979 25.2878 21.3261 25.8146 20 25.8146C18.6739 25.8146 17.4021 25.2878 16.4645 24.3501C15.5268 23.4124 15 22.1407 15 20.8146C15 19.4885 15.5268 18.2167 16.4645 17.279C17.4021 16.3414 18.6739 15.8146 20 15.8146ZM20 17.8146C19.2044 17.8146 18.4413 18.1306 17.8787 18.6933C17.3161 19.2559 17 20.0189 17 20.8146C17 21.6102 17.3161 22.3733 17.8787 22.9359C18.4413 23.4985 19.2044 23.8146 20 23.8146C20.7956 23.8146 21.5587 23.4985 22.1213 22.9359C22.6839 22.3733 23 21.6102 23 20.8146C23 20.0189 22.6839 19.2559 22.1213 18.6933C21.5587 18.1306 20.7956 17.8146 20 17.8146Z" fill="#171407"/>
</svg>
