<svg width="140" height="141" viewBox="0 0 140 141" fill="none" xmlns="http://www.w3.org/2000/svg">
<rect x="1" y="1.81458" width="138" height="138" rx="7" stroke="#F5EBC3" stroke-width="2"/>
<path d="M30 84.9209C33.6951 101.865 38.4225 108.289 54.5662 110.815C47.3654 100.661 45.5047 95.2385 46.4997 86.0803C51.6119 79.0786 54.426 74.6849 59.3328 65.5972C68.0991 73.2482 73.8053 75.7591 86.8324 77.9643C80.0093 73.7379 77.1661 71.2784 73.6326 66.7566C81.3007 70.2067 85.4018 72.3174 89.7656 78.7373C97.1454 89.3144 96.0951 96.4327 86.8324 110.815C96.4625 108.853 101.263 106.749 106.632 97.6745C111.337 82.0723 110.903 73.6569 106.632 59.0271C97.7534 39.4196 88.712 34.2364 68.4993 30.8146C61.817 33.474 58.1237 34.1887 51.633 34.2928C35.3225 46.8301 30.9203 58.2229 30 84.9209Z" fill="#F5EBC3"/>
</svg>
