<svg width="100" height="101" viewBox="0 0 100 101" fill="none" xmlns="http://www.w3.org/2000/svg">
<path d="M32.5 58.3145C32.5 48.6495 40.055 40.8145 49.375 40.8145H50.625C59.945 40.8145 67.5 48.6495 67.5 58.3145C67.5 67.9795 59.945 75.8145 50.625 75.8145H49.375C40.055 75.8145 32.5 67.9795 32.5 58.3145Z" stroke="#E2C244" stroke-width="1.5" stroke-linecap="round" stroke-linejoin="round"/>
<path d="M51.25 65.8145V53.1845C51.25 51.7495 51.25 51.0295 50.675 50.852C49.4075 50.4595 47.5 53.312 47.5 53.312M51.25 65.8145L47.5 65.812M51.25 65.8145L55 65.812M53.9 25.8145L47.5 40.5595M65 25.8145L57.9475 42.0645M46.1 25.8145L50 34.7995M35 25.8145L42.0525 42.0645" stroke="#E2C244" stroke-width="1.5" stroke-linecap="round" stroke-linejoin="round"/>
<circle cx="50" cy="50.8145" r="49" stroke="#F5EBC3" stroke-width="2"/>
</svg>
