<svg width="28" height="29" viewBox="0 0 28 29" fill="none" xmlns="http://www.w3.org/2000/svg">
<rect x="0.5" y="1.31445" width="27" height="27" rx="13.5" stroke="#E2C244"/>
<path d="M11.06 7.81445H16.94C19.18 7.81445 21 9.63445 21 11.8745V17.7545C21 18.8312 20.5723 19.8639 19.8109 20.6253C19.0495 21.3867 18.0168 21.8145 16.94 21.8145H11.06C8.82 21.8145 7 19.9945 7 17.7545V11.8745C7 10.7977 7.42775 9.765 8.18915 9.0036C8.95054 8.2422 9.98322 7.81445 11.06 7.81445ZM10.92 9.21445C10.2517 9.21445 9.61068 9.47995 9.13809 9.95254C8.6655 10.4251 8.4 11.0661 8.4 11.7345V17.8945C8.4 19.2875 9.527 20.4145 10.92 20.4145H17.08C17.7483 20.4145 18.3893 20.149 18.8619 19.6764C19.3345 19.2038 19.6 18.5628 19.6 17.8945V11.7345C19.6 10.3415 18.473 9.21445 17.08 9.21445H10.92ZM17.675 10.2645C17.9071 10.2645 18.1296 10.3566 18.2937 10.5207C18.4578 10.6848 18.55 10.9074 18.55 11.1395C18.55 11.3715 18.4578 11.5941 18.2937 11.7582C18.1296 11.9223 17.9071 12.0145 17.675 12.0145C17.4429 12.0145 17.2204 11.9223 17.0563 11.7582C16.8922 11.5941 16.8 11.3715 16.8 11.1395C16.8 10.9074 16.8922 10.6848 17.0563 10.5207C17.2204 10.3566 17.4429 10.2645 17.675 10.2645ZM14 11.3145C14.9283 11.3145 15.8185 11.6832 16.4749 12.3396C17.1313 12.996 17.5 13.8862 17.5 14.8145C17.5 15.7427 17.1313 16.6329 16.4749 17.2893C15.8185 17.9457 14.9283 18.3145 14 18.3145C13.0717 18.3145 12.1815 17.9457 11.5251 17.2893C10.8687 16.6329 10.5 15.7427 10.5 14.8145C10.5 13.8862 10.8687 12.996 11.5251 12.3396C12.1815 11.6832 13.0717 11.3145 14 11.3145ZM14 12.7145C13.443 12.7145 12.9089 12.9357 12.5151 13.3295C12.1212 13.7234 11.9 14.2575 11.9 14.8145C11.9 15.3714 12.1212 15.9056 12.5151 16.2994C12.9089 16.6932 13.443 16.9145 14 16.9145C14.557 16.9145 15.0911 16.6932 15.4849 16.2994C15.8788 15.9056 16.1 15.3714 16.1 14.8145C16.1 14.2575 15.8788 13.7234 15.4849 13.3295C15.0911 12.9357 14.557 12.7145 14 12.7145Z" fill="#E2C244"/>
</svg>
