<svg width="140" height="141" viewBox="0 0 140 141" fill="none" xmlns="http://www.w3.org/2000/svg">
<rect x="1" y="1.81458" width="138" height="138" rx="7" stroke="#F5EBC3" stroke-width="2"/>
<path d="M50 74.8146C50 69.5103 52.1071 64.4232 55.8579 60.6725C59.6086 56.9218 64.6957 54.8146 70 54.8146C75.3043 54.8146 80.3914 56.9218 84.1421 60.6725C87.8929 64.4232 90 69.5103 90 74.8146V94.8146C90 102.359 90 106.127 87.656 108.471C85.312 110.815 81.544 110.815 74 110.815H66C58.456 110.815 54.688 110.815 52.344 108.471C50 106.127 50 102.359 50 94.8146V74.8146Z" stroke="#F5EBC3" stroke-width="3.5" stroke-linecap="round" stroke-linejoin="round"/>
<path d="M62 54.8146V50.8146C62 47.0426 62 45.1586 63.172 43.9866C64.344 42.8146 66.228 42.8146 70 42.8146M70 42.8146C73.772 42.8146 75.656 42.8146 76.828 43.9866C78 45.1586 78 47.0426 78 50.8146V54.8146M70 42.8146V30.8146M70 30.8146H62M70 30.8146H80.98C84.0087 30.8153 86.925 31.9613 89.144 34.0226L90 34.8146M50 74.8146H90" stroke="#F5EBC3" stroke-width="3.5" stroke-linecap="round" stroke-linejoin="round"/>
</svg>
