<svg width="86" height="125" viewBox="0 0 86 125" fill="none" xmlns="http://www.w3.org/2000/svg">
<path d="M17 38C15.1611 45.66 14.0145 49.7864 11.5 56.5C9.92246 49.3292 9.23441 44.6482 8.5 34.5C4.09272 29.6301 2.61489 25.9993 0 19.5C3.70296 22.6575 5.77753 24.1301 9.5 25.5C9.41021 21.1893 8.90806 18.2777 7.5 12.5C6.94753 6.2988 7.16224 3.91288 8.5 1.5C12.9854 6.68061 16.0176 8.65303 23.5 10.5L21 1.5C23.1115 4.35304 24.6323 5.10406 28 5L29.5 1.5C31.0715 2.93796 32.6394 3.69375 36 5L37 0C41.4315 2.54711 43.9394 3.58814 48.5 3.5L49.5 0C64.9465 8.81114 75.0181 14.2046 86 27.5C85.7159 45.7773 85.5052 58.1037 82.5 61C80.8604 52.6594 79.7608 48.6258 77.5 42.5C50.6706 45.2289 37.2214 44.5192 17 38Z" fill="#0E0D05"/>
<path fill-rule="evenodd" clip-rule="evenodd" d="M12 68L13 101.5C22.921 111.603 28.9067 116.687 40.5 124.5C44.397 123.478 48.2473 122.925 60 122C68.507 117.427 72.9082 113.874 80 105.5C80.9453 101.038 81.3452 90.5251 82 68C77.609 80.2006 75.0529 86.6455 70 96C65.2633 91.095 63.7136 88.4143 61.1592 83.9958C60.797 83.3692 60.4146 82.7077 60 82C50.2919 85.3182 45.4262 85.1187 36 82C30.6862 89.2562 28.0767 91.4565 25.8814 93.3076C25.4093 93.7056 24.9565 94.0875 24.5 94.5C19.2919 86.0248 16.6596 79.6314 12 68ZM34 104.714C37.1414 108.376 39.475 110.085 46 111.714L47 105.214H51.5L53 111.214C57.9008 111.05 60.2903 110.42 63.5 107.714C62.0865 104.194 61.403 102.816 58.5 97.7141C55.7354 96.3144 53.0218 96.1108 49 97.7141C44.6738 95.7479 41.8433 95.3303 39.5 97.2142C36.5106 100.177 35.7316 101.439 34 104.714Z" fill="#0E0D05"/>
</svg>
