<svg width="86" height="125" viewBox="0 0 86 125" fill="none" xmlns="http://www.w3.org/2000/svg">
<path d="M17 38.5C15.1611 46.16 14.0145 50.2864 11.5 57C9.92246 49.8292 9.23441 45.1482 8.5 35C4.09272 30.1301 2.61489 26.4993 0 20C3.70296 23.1575 5.77753 24.6301 9.5 26C9.41021 21.6893 8.90806 18.7777 7.5 13C6.94753 6.7988 7.16224 4.41288 8.5 2C12.9854 7.18061 16.0176 9.15303 23.5 11L21 2C23.1115 4.85304 24.6323 5.60406 28 5.5L29.5 2C31.0715 3.43796 32.6394 4.19375 36 5.5L37 0.5C41.4315 3.04711 43.9394 4.08814 48.5 4L49.5 0.5C64.9465 9.31114 75.0181 14.7046 86 28C85.7159 46.2773 85.5052 58.6037 82.5 61.5C80.8604 53.1594 79.7608 49.1258 77.5 43C50.6706 45.7289 37.2214 45.0192 17 38.5Z" fill="#E2C244"/>
<path fill-rule="evenodd" clip-rule="evenodd" d="M12 68.5L13 102C22.921 112.103 28.9067 117.187 40.5 125C44.397 123.978 48.2473 123.425 60 122.5C68.507 117.927 72.9082 114.374 80 106C80.9453 101.538 81.3452 91.0251 82 68.5C77.609 80.7006 75.0529 87.1455 70 96.5C65.2633 91.595 63.7136 88.9143 61.1592 84.4958C60.797 83.8692 60.4146 83.2077 60 82.5C50.2919 85.8182 45.4262 85.6187 36 82.5C30.6862 89.7562 28.0767 91.9565 25.8814 93.8076C25.4093 94.2056 24.9565 94.5875 24.5 95C19.2919 86.5248 16.6596 80.1314 12 68.5ZM34 105.214C37.1414 108.876 39.475 110.585 46 112.214L47 105.714H51.5L53 111.714C57.9008 111.55 60.2903 110.92 63.5 108.214C62.0865 104.694 61.403 103.316 58.5 98.2141C55.7354 96.8144 53.0218 96.6108 49 98.2141C44.6738 96.2479 41.8433 95.8303 39.5 97.7142C36.5106 100.677 35.7316 101.939 34 105.214Z" fill="#E2C244"/>
</svg>
