<svg width="24" height="25" viewBox="0 0 24 25" fill="none" xmlns="http://www.w3.org/2000/svg">
<g clip-path="url(#clip0_12130_168)">
<path d="M19.0498 5.57663C17.1798 3.69663 14.6898 2.66663 12.0398 2.66663C6.5798 2.66663 2.1298 7.11663 2.1298 12.5766C2.1298 14.3266 2.5898 16.0266 3.4498 17.5266L2.0498 22.6666L7.2998 21.2866C8.7498 22.0766 10.3798 22.4966 12.0398 22.4966C17.4998 22.4966 21.9498 18.0466 21.9498 12.5866C21.9498 9.93663 20.9198 7.44663 19.0498 5.57663ZM12.0398 20.8166C10.5598 20.8166 9.1098 20.4166 7.8398 19.6666L7.5398 19.4866L4.4198 20.3066L5.2498 17.2666L5.0498 16.9566C4.2298 15.6466 3.7898 14.1266 3.7898 12.5766C3.7898 8.03663 7.4898 4.33663 12.0298 4.33663C14.2298 4.33663 16.2998 5.19663 17.8498 6.75663C19.4098 8.31663 20.2598 10.3866 20.2598 12.5866C20.2798 17.1266 16.5798 20.8166 12.0398 20.8166ZM16.5598 14.6566C16.3098 14.5366 15.0898 13.9366 14.8698 13.8466C14.6398 13.7666 14.4798 13.7266 14.3098 13.9666C14.1398 14.2166 13.6698 14.7766 13.5298 14.9366C13.3898 15.1066 13.2398 15.1266 12.9898 14.9966C12.7398 14.8766 11.9398 14.6066 10.9998 13.7666C10.2598 13.1066 9.7698 12.2966 9.6198 12.0466C9.4798 11.7966 9.5998 11.6666 9.7298 11.5366C9.8398 11.4266 9.9798 11.2466 10.0998 11.1066C10.2198 10.9666 10.2698 10.8566 10.3498 10.6966C10.4298 10.5266 10.3898 10.3866 10.3298 10.2666C10.2698 10.1466 9.7698 8.92663 9.5698 8.42663C9.3698 7.94663 9.1598 8.00663 9.0098 7.99663C8.8598 7.99663 8.6998 7.99663 8.5298 7.99663C8.3598 7.99663 8.0998 8.05663 7.8698 8.30663C7.6498 8.55663 7.0098 9.15663 7.0098 10.3766C7.0098 11.5966 7.89981 12.7766 8.0198 12.9366C8.1398 13.1066 9.7698 15.6066 12.2498 16.6766C12.8398 16.9366 13.2998 17.0866 13.6598 17.1966C14.2498 17.3866 14.7898 17.3566 15.2198 17.2966C15.6998 17.2266 16.6898 16.6966 16.8898 16.1166C17.0998 15.5366 17.0998 15.0466 17.0298 14.9366C16.9598 14.8266 16.8098 14.7766 16.5598 14.6566Z" fill="#FAF3DC"/>
</g>
<defs>
<clipPath id="clip0_12130_168">
<rect width="24" height="24" fill="white" transform="translate(0 0.666626)"/>
</clipPath>
</defs>
</svg>
