<svg width="100" height="100" viewBox="0 0 100 100" fill="none" xmlns="http://www.w3.org/2000/svg">
<circle cx="50" cy="50" r="50" fill="#5FD669"/>
<g clip-path="url(#clip0_12337_520)">
<path d="M73.7064 26.1621C67.551 19.9738 59.3547 16.5833 50.6318 16.5833C32.6593 16.5833 18.0114 31.2313 18.0114 49.2038C18.0114 54.9642 19.5255 60.56 22.3564 65.4975L17.748 82.4167L35.0293 77.8742C39.8022 80.4746 45.1676 81.8571 50.6318 81.8571C68.6043 81.8571 83.2522 67.2092 83.2522 49.2367C83.2522 40.5138 79.8618 32.3175 73.7064 26.1621ZM50.6318 76.3271C45.7601 76.3271 40.9872 75.0104 36.8068 72.5417L35.8193 71.9492L25.5493 74.6483L28.2814 64.6417L27.623 63.6213C24.9239 59.3092 23.4755 54.3058 23.4755 49.2038C23.4755 34.2596 35.6547 22.0804 50.5989 22.0804C57.8405 22.0804 64.6543 24.9113 69.7564 30.0463C74.8914 35.1813 77.6893 41.995 77.6893 49.2367C77.7551 64.1808 65.576 76.3271 50.6318 76.3271ZM65.5101 56.0504C64.6872 55.6554 60.6714 53.6804 59.9472 53.3842C59.1901 53.1208 58.6635 52.9892 58.1039 53.7792C57.5443 54.6021 55.9972 56.4454 55.5364 56.9721C55.0755 57.5317 54.5818 57.5975 53.7589 57.1696C52.936 56.7746 50.3026 55.8858 47.2085 53.1208C44.7726 50.9483 43.1597 48.2821 42.666 47.4592C42.2051 46.6363 42.6001 46.2083 43.028 45.7804C43.3901 45.4183 43.851 44.8258 44.246 44.365C44.641 43.9042 44.8055 43.5421 45.0689 43.0154C45.3322 42.4558 45.2005 41.995 45.003 41.6C44.8055 41.205 43.1597 37.1892 42.5014 35.5433C41.843 33.9633 41.1518 34.1608 40.658 34.1279C40.1643 34.1279 39.6376 34.1279 39.078 34.1279C38.5185 34.1279 37.6626 34.3254 36.9055 35.1483C36.1814 35.9713 34.0747 37.9463 34.0747 41.9621C34.0747 45.9779 37.0043 49.8621 37.3993 50.3888C37.7943 50.9483 43.1597 59.1775 51.323 62.6996C53.2651 63.5554 54.7793 64.0492 55.9643 64.4113C57.9064 65.0367 59.6839 64.9379 61.0993 64.7404C62.6793 64.51 65.938 62.7654 66.5964 60.8563C67.2876 58.9471 67.2876 57.3342 67.0572 56.9721C66.8268 56.61 66.333 56.4454 65.5101 56.0504Z" fill="#FDFDFD"/>
</g>
<defs>
<clipPath id="clip0_12337_520">
<rect width="79" height="79" fill="white" transform="translate(11 10)"/>
</clipPath>
</defs>
</svg>
