<svg width="110" height="110" viewBox="0 0 110 110" fill="none" xmlns="http://www.w3.org/2000/svg">
<path d="M0 74.3961C5.08073 97.6947 11.5809 106.528 33.7786 110C23.8774 96.0383 21.3189 88.5829 22.6871 75.9903C29.7163 66.363 33.5857 60.3217 40.3326 47.8261C52.3863 58.3463 60.2322 61.7988 78.1445 64.8309C68.7628 59.0195 64.8533 55.6378 59.9948 49.4203C70.5384 54.1642 76.1774 57.0664 82.1778 65.8937C92.3249 80.4372 90.8808 90.2249 78.1445 110C91.386 107.302 97.9862 104.41 105.369 91.9324C111.839 70.4793 111.241 58.9082 105.369 38.7923C93.1609 11.8319 80.729 4.70496 52.9366 0C43.7484 3.65671 38.6701 4.63945 29.7453 4.78261C7.31844 22.0214 1.2654 37.6864 0 74.3961Z" fill="#E2C244"/>
</svg>
